:SAMPLES-PER-SECOND 30
:FULLY-SPECIFIED
:DEGREES
1
root  74.2295 40.5663 -31.7177 170.275 -86.2467 -171.196
RightUpLeg  0.288981 -7.11975 -3.83146
RightLeg  2.90205 -6.56457 3.41758
RightFoot  -1.03565 0.0601399 -0.827895
RightToes  -5.8209e-011 0 -3.6325e-017
Spine  -1.71336 -0.705127 -1.74719
Spine1  7.46741 -1.23228 2.23024
HEad  -6.98583 2.64017 -0.854365
LeftShoulder1  0.809441 -1.24128 -9.61012
LeftArm  -12.1127 12.779 0.688457
LeftForeArm  12.3134 -2.56363 -3.20697
LeftHand  -0.244104 0.0205437 5.32207
RightShoulder  0.426239 -0.114535 4.71484
RightArm  -14.574 -3.53479 4.67514
RightForeArm  -16.8427 2.39727 5.97542
RightHand  -2.69688 8.2053 -23.0559
LeftUpLeg  1.03236 5.03003 2.40559
LeftLeg  1.72322 10.5427 -3.9947
LeftFoot  -1.84794 -0.303899 3.7997
LeftToes  5.72949e-011 -2.03295e-011 6.54899e-012
2
root  74.2344 40.5663 -31.7224 170.301 -86.244 -171.215
RightUpLeg  0.279532 -7.11008 -3.8218
RightLeg  2.89516 -6.59081 3.41656
RightFoot  -1.04981 0.0610039 -0.84132
RightToes  -5.8209e-011 0 -3.6325e-017
Spine  -1.58921 -0.679427 -1.72529
Spine1  7.16963 -1.14773 2.01578
HEad  -6.7155 2.46617 -0.604083
LeftShoulder1  0.828462 -1.43286 -9.30973
LeftArm  -12.0583 12.9331 0.681138
LeftForeArm  12.4848 -2.52188 -3.19159
LeftHand  -0.244104 0.0205437 5.32207
RightShoulder  0.473892 -0.00110474 5.79406
RightArm  -14.334 -3.33814 3.67473
RightForeArm  -17.8408 2.44985 6.07887
RightHand  -2.44097 6.7733 -23.309
LeftUpLeg  0.994083 5.04499 2.41584
LeftLeg  1.77088 10.5236 -3.99146
LeftFoot  -1.86911 -0.303593 3.80001
LeftToes  5.72949e-011 -2.03295e-011 6.54899e-012
3
root  74.2451 40.5663 -31.7306 170.096 -86.2275 -171.007
RightUpLeg  0.267241 -7.08498 -3.78388
RightLeg  2.88329 -6.62697 3.41406
RightFoot  -1.0632 0.0600336 -0.826244
RightToes  -5.8209e-011 0 -3.6325e-017
Spine  -1.40508 -0.639415 -1.72512
Spine1  6.7604 -1.05882 1.84901
HEad  -6.23816 2.17674 -0.364576
LeftShoulder1  0.876262 -1.78455 -9.08593
LeftArm  -11.8695 13.2384 0.834127
LeftForeArm  12.5281 -2.50364 -3.2065
LeftHand  -0.244104 0.0205437 5.32207
RightShoulder  0.532339 0.124867 7.07277
RightArm  -14.2473 -3.06875 2.45399
RightForeArm  -18.8626 2.38841 6.11808
RightHand  -2.16667 5.17573 -23.7594
LeftUpLeg  0.943051 5.06797 2.45047
LeftLeg  1.84107 10.5125 -3.98254
LeftFoot  -1.89336 -0.300585 3.77571
LeftToes  5.72949e-011 -2.03295e-011 6.54899e-012
4
root  74.254 40.5659 -31.7384 169.805 -86.188 -170.743
RightUpLeg  0.288351 -7.05892 -3.74606
RightLeg  2.87521 -6.63675 3.41133
RightFoot  -1.08821 0.0549318 -0.746979
RightToes  -5.8209e-011 0 -3.6325e-017
Spine  -1.13112 -0.588194 -1.67833
Spine1  6.30344 -0.952491 1.64442
HEad  -5.65068 1.85468 -0.115611
LeftShoulder1  0.917825 -2.11865 -8.82187
LeftArm  -11.6406 13.5818 0.945895
LeftForeArm  12.4675 -2.55042 -3.24543
LeftHand  -0.244104 0.0205437 5.32207
RightShoulder  0.590141 0.273458 8.14848
RightArm  -14.0778 -2.99444 1.39227
RightForeArm  -18.9882 2.25788 6.14768
RightHand  -2.10178 4.85713 -23.769
LeftUpLeg  0.934673 5.09486 2.49409
LeftLeg  1.90671 10.5235 -3.96714
LeftFoot  -1.91788 -0.297113 3.74569
LeftToes  5.72949e-011 -2.03295e-011 6.54899e-012
5
root  74.2581 40.5638 -31.7478 169.769 -86.1205 -170.756
RightUpLeg  0.315025 -7.03187 -3.7166
RightLeg  2.90064 -6.59767 3.3982
RightFoot  -1.11201 0.0539115 -0.731128
RightToes  -5.8209e-011 0 -3.6325e-017
Spine  -0.795778 -0.488354 -1.58585
Spine1  5.84203 -0.803657 1.45178
HEad  -5.04694 1.46646 0.0788796
LeftShoulder1  0.957849 -2.41226 -8.67988
LeftArm  -11.4933 13.7833 1.03557
LeftForeArm  12.6297 -2.61414 -3.26693
LeftHand  -0.244104 0.0205437 5.32207
RightShoulder  0.612727 0.305257 8.66275
RightArm  -13.5206 -3.16457 0.887703
RightForeArm  -19.3682 2.32703 6.34706
RightHand  -2.16176 5.27356 -23.5075
LeftUpLeg  0.961651 5.13928 2.53864
LeftLeg  1.97661 10.543 -3.96963
LeftFoot  -1.95969 -0.293907 3.72019
LeftToes  5.72949e-011 -2.03295e-011 6.54899e-012
6
root  74.2615 40.561 -31.7597 170.035 -86.017 -171.054
RightUpLeg  0.299257 -7.01717 -3.69447
RightLeg  2.95849 -6.50398 3.39137
RightFoot  -1.12964 0.059437 -0.816973
RightToes  -5.8209e-011 0 -3.6325e-017
Spine  -0.587724 -0.430961 -1.56611
Spine1  5.65741 -0.719204 1.33873
HEad  -4.51155 1.27318 0.221228
LeftShoulder1  0.937116 -2.34156 -8.5032
LeftArm  -11.5385 13.7879 0.859876
LeftForeArm  12.9235 -2.69652 -3.25371
LeftHand  -0.244104 0.0205437 5.32207
RightShoulder  0.621899 0.285807 9.02506
RightArm  -13.0121 -3.12147 0.633473
RightForeArm  -20.522 2.43569 6.59743
RightHand  -2.2114 5.46158 -23.6288
LeftUpLeg  0.978776 5.18729 2.57686
LeftLeg  2.03734 10.5904 -3.98584
LeftFoot  -2.00714 -0.290313 3.69277
LeftToes  5.72949e-011 -2.03295e-011 6.54899e-012
7
root  74.2675 40.5589 -31.769 170.248 -85.9148 -171.27
RightUpLeg  0.262619 -7.03862 -3.69378
RightLeg  3.008 -6.3971 3.42354
RightFoot  -1.18376 0.06003 -0.826188
RightToes  -5.8209e-011 0 -3.6325e-017
Spine  -0.526466 -0.367662 -1.55933
Spine1  5.63386 -0.660533 1.36633
HEad  -4.16493 1.3034 0.187194
LeftShoulder1  0.949109 -2.36657 -8.65408
LeftArm  -11.62 13.7717 0.837093
LeftForeArm  12.7758 -2.73123 -3.23326
LeftHand  -0.244104 0.0205437 5.32207
RightShoulder  0.614942 0.223324 9.12217
RightArm  -13.1271 -3.12162 0.525669
RightForeArm  -20.5922 2.38752 6.5518
RightHand  -2.2538 5.53311 -23.9144
LeftUpLeg  0.960213 5.21129 2.60086
LeftLeg  2.08893 10.6701 -3.98284
LeftFoot  -2.0466 -0.286616 3.67157
LeftToes  5.72949e-011 -2.03295e-011 6.54899e-012
8
root  74.2745 40.5565 -31.7738 170.149 -85.8646 -171.162
RightUpLeg  0.224937 -7.06812 -3.6991
RightLeg  3.07139 -6.3376 3.46538
RightFoot  -1.29145 0.05372 -0.728154
RightToes  -5.8209e-011 0 -3.6325e-017
Spine  -0.866739 -0.364099 -1.48296
Spine1  6.21282 -0.681742 1.4463
HEad  -4.80019 1.62514 -0.0952862
LeftShoulder1  0.989062 -2.45078 -9.14743
LeftArm  -12.041 13.8214 0.858832
LeftForeArm  12.4649 -2.93729 -3.09093
LeftHand  -0.244104 0.0205437 5.32207
RightShoulder  0.597957 0.191171 8.76957
RightArm  -13.641 -3.29687 0.991346
RightForeArm  -19.945 2.37606 6.36597
RightHand  -2.43763 6.46319 -23.8865
LeftUpLeg  0.899879 5.22606 2.6236
LeftLeg  2.19266 10.7176 -3.95616
LeftFoot  -2.10952 -0.282111 3.65083
LeftToes  5.72949e-011 -2.03295e-011 6.54899e-012
